<svg xmlns="http://www.w3.org/2000/svg" viewBox="0 0 512 512" width="512" height="512" role="img" aria-label="Fresclean FC monogram"><metadata><rdf:RDF xmlns:rdf="http://www.w3.org/1999/02/22-rdf-syntax-ns#" xmlns:dc="http://purl.org/dc/elements/1.1/"><rdf:Description><dc:creator>RealFaviconGenerator</dc:creator><dc:source>https://realfavicongenerator.net</dc:source></rdf:Description></rdf:RDF></metadata><path fill="#000" fill-rule="evenodd" d="M217.16 291.67 L219.54 304.35 L229.85 330.50 L243.32 352.69 L258.38 370.92 L272.64 384.40 L292.46 398.66 L311.48 408.97 L332.09 416.89 L352.69 421.65 L366.96 423.23 L391.53 423.23 L412.93 420.06 L430.37 415.31 L455.73 404.21 L473.16 393.11 L489.02 378.85 L489.02 377.26 L450.97 339.22 L439.88 347.94 L424.82 356.66 L410.55 362.20 L392.32 366.17 L377.26 366.96 L360.62 365.37 L340.01 359.83 L326.54 353.49 L308.31 340.80 L296.42 328.92 L284.53 312.27 L278.98 301.18 L274.23 287.70 L271.06 271.85 L270.27 257.59 L261.55 267.89 L244.11 281.36 L229.05 288.50 Z M489.02 134.74 L475.54 122.06 L461.28 111.75 L445.42 103.03 L422.44 94.32 L392.32 88.77 L364.58 88.77 L343.18 91.94 L325.75 96.69 L298.80 108.58 L278.98 121.26 L264.72 133.15 L249.66 149.00 L234.60 169.61 L221.92 194.18 L214.79 216.37 L211.62 219.54 L81.63 219.54 L81.63 145.83 L218.75 145.83 L225.88 136.32 L244.90 116.51 L261.55 102.24 L279.78 90.35 L22.98 90.35 L22.19 420.06 L80.84 420.06 L81.63 274.23 L206.07 274.23 L219.54 271.06 L237.77 261.55 L256.00 244.90 L268.68 225.88 L281.36 199.73 L291.67 185.46 L307.52 169.61 L326.54 156.93 L339.22 151.38 L359.83 145.83 L377.26 144.25 L396.28 145.83 L414.51 150.59 L431.16 158.51 L450.97 173.57 Z"></path><style>@media (prefers-color-scheme: light) { :root { filter: none; } }
@media (prefers-color-scheme: dark) { :root { filter: invert(100%); } }
</style></svg>